# xmcd
# 
# Track frame offsets:
#     150
#     26629
#     51284
#     72781
#     95738
#     116865
#     147204
#     171684
#     198083
#     221578
# 
# Disc length: 3511
# 
# Revision: 5
# Processed by: cddbd v1.5.2PL0 Copyright (c) Steve Scherf et al.
# Submitted via: BonkEnc v1.0.8
# 
DISCID=9b0db50a
DTITLE=Judas Priest - Jugulator
DYEAR=1997
DGENRE=Metal
TTITLE0=Jugulator
TTITLE1=Blood Stained
TTITLE2=Dead Meat
TTITLE3=Death Row
TTITLE4=Decapitate
TTITLE5=Burn In Hell
TTITLE6=Brain Dead
TTITLE7=Abductors
TTITLE8=Bullet Train
TTITLE9=Cathedral Spires
EXTD=YEAR: 1997
EXTT0=
EXTT1=
EXTT2=
EXTT3=
EXTT4=
EXTT5=
EXTT6=
EXTT7=
EXTT8=
EXTT9=
PLAYORDER=
